<svg version="1.1" xmlns="http://www.w3.org/2000/svg" xmlns:xlink="http://www.w3.org/1999/xlink" width="31.54266" height="55.13665" viewBox="0,0,31.54266,55.13665"><g transform="translate(-224.079,-152.4441)"><g data-paper-data="{&quot;isPaintingLayer&quot;:true}" fill="#5fb9ff" fill-rule="nonzero" stroke="#4181b1" stroke-width="2" stroke-linecap="butt" stroke-linejoin="miter" stroke-miterlimit="10" stroke-dasharray="" stroke-dashoffset="0" style="mix-blend-mode: normal"><g><path d="M244.3926,187.07374l-0.76545,19.15267l-18.24881,0.33063l5.04773,-19.41815z"/><path d="M243.96792,196.40476l-15.5027,0.07231c0,0 2.6189,-12.39076 4.34274,-24.25919c0.5692,-3.91887 -3.23425,-2.64882 -2.33811,-10.08797c0.85646,-7.10966 6.97638,-8.64202 13.05528,-8.68581c6.4754,-0.04665 12.09574,1.31964 10.94632,8.37991c-1.3029,8.00301 -6.42182,7.40222 -7.01717,10.56133c-2.19986,11.67314 -3.48636,24.01942 -3.48636,24.01942zM234.23811,183.43858l-1.77795,9.58285l8.36654,-0.03903l1.4926,-9.33602c0,0 0.05986,-4.03285 -3.52334,-4.03771c-2.56245,-0.00347 -4.55785,3.82991 -4.55785,3.82991zM242.80723,157.9344c-2.03854,0.00951 -6.1303,1.43182 -6.61282,4.44987c-0.60035,3.7551 2.79631,5.14249 4.83487,5.13298c2.03854,-0.00951 7.11459,-1.43642 7.71494,-5.19152c0.56107,-3.50942 -3.89845,-4.40083 -5.937,-4.39132z"/><path d="M240.04687,187.09401l-3.06375,19.16339l-4.9215,0.02296l3.06375,-19.16339z"/></g></g></g></svg>